<svg width="113" height="89" viewBox="0 0 113 89" fill="none" xmlns="http://www.w3.org/2000/svg">
<g id="Group 992">
<circle id="Ellipse 261" cx="56.7751" cy="39.5115" r="35.6194" fill="white"/>
<g id="Group 979">
<path id="Vector 7" d="M66.4883 84.195C90.6663 77.5028 122.977 49.2232 93.1134 8.42285" stroke="white" stroke-width="0.43175"/>
<path id="Vector 9" d="M94.4808 10.2217C95.8755 8.0939 97.1661 3.07068 91.1715 7.51126e-05C91.0794 2.08607 91.6122 7.05079 94.4808 10.2217Z" fill="white"/>
<path id="Vector 23" d="M99.5147 18.5305C101.139 16.5724 102.985 11.7256 97.3721 8.00229C97.0467 10.0648 97.0197 15.058 99.5147 18.5305Z" fill="white"/>
<path id="Vector 24" d="M102.508 24.9605C104.61 23.527 107.722 19.378 103.356 14.25C102.473 16.1425 101.069 20.9341 102.508 24.9605Z" fill="white"/>
<path id="Vector 25" d="M104.563 32.8534C106.883 31.81 110.673 28.2697 107.271 22.4565C106.072 24.1654 103.85 28.6373 104.563 32.8534Z" fill="white"/>
<path id="Vector 26" d="M105.333 41.0169C107.775 40.3038 112.017 37.3208 109.451 31.0936C108.027 32.6205 105.209 36.7428 105.333 41.0169Z" fill="white"/>
<path id="Vector 27" d="M104.319 49.2033C106.819 48.7292 111.329 46.1695 109.376 39.7237C107.811 41.106 104.609 44.9372 104.319 49.2033Z" fill="white"/>
<path id="Vector 28" d="M101.388 56.585C103.924 56.7936 108.953 55.5276 108.787 48.7943C106.91 49.71 102.803 52.55 101.388 56.585Z" fill="white"/>
<path id="Vector 29" d="M97.9108 63.1591C100.354 63.8687 105.535 63.6301 106.713 56.9986C104.692 57.5221 100.101 59.4869 97.9108 63.1591Z" fill="white"/>
<path id="Vector 30" d="M91.7196 69.7276C93.9196 71.0054 99.0051 72.0231 101.748 65.8715C99.6598 65.8921 94.7311 66.6921 91.7196 69.7276Z" fill="white"/>
<path id="Vector 31" d="M86.0408 74.84C88 76.4629 92.8482 78.3051 96.5674 72.6898C94.5047 72.3659 89.5115 72.3424 86.0408 74.84Z" fill="white"/>
<path id="Vector 32" d="M80.0016 78.6983C81.4903 80.7615 85.7202 83.7625 90.7308 79.2617C88.8156 78.43 83.9885 77.1528 80.0016 78.6983Z" fill="white"/>
<path id="Vector 33" d="M71.591 82.7167C73.0796 84.7798 77.3095 87.7808 82.3202 83.28C80.405 82.4483 75.5778 81.1711 71.591 82.7167Z" fill="white"/>
<path id="Vector 10" d="M94.6574 10.9212C92.7328 12.5851 87.9245 14.5289 84.0878 8.99318C86.1433 8.6259 91.1349 8.49731 94.6574 10.9212Z" fill="white"/>
<path id="Vector 11" d="M99.3881 18.4069C97.0996 19.5183 91.9527 20.1567 89.673 13.819C91.7536 13.994 96.6096 15.1567 99.3881 18.4069Z" fill="white"/>
<path id="Vector 12" d="M101.97 25.3382C99.6785 26.4445 94.5302 27.0713 92.2647 20.7285C94.345 20.9082 99.1983 22.0818 101.97 25.3382Z" fill="white"/>
<path id="Vector 13" d="M104.321 32.9105C101.88 33.6254 96.6983 33.3979 95.5056 26.769C97.5281 27.2881 102.123 29.2431 104.321 32.9105Z" fill="white"/>
<path id="Vector 14" d="M104.709 40.9608C102.165 40.9735 97.2481 39.3237 97.9328 32.6233C99.7332 33.6808 103.609 36.8288 104.709 40.9608Z" fill="white"/>
<path id="Vector 22" d="M94.4097 10.3673C92.8985 8.20853 89.3344 1.07929 84.0477 1.30573C84.4706 5.60997 88.9115 9.00861 94.4097 10.3673Z" fill="white"/>
<path id="Vector 15" d="M103.903 49.0563C101.37 48.8267 96.632 46.7163 97.9514 40.1115C99.643 41.3356 103.202 44.8383 103.903 49.0563Z" fill="white"/>
<path id="Vector 16" d="M101.273 56.3493C98.8765 55.4947 94.8155 52.2688 97.7414 46.2022C99.074 47.8097 101.646 52.0897 101.273 56.3493Z" fill="white"/>
<path id="Vector 17" d="M97.3574 62.8798C95.1678 61.5843 91.7957 57.6438 95.8239 52.2458C96.8258 54.0778 98.5352 58.7693 97.3574 62.8798Z" fill="white"/>
<path id="Vector 18" d="M91.7265 69.3524C89.9937 67.4896 87.8761 62.7552 93.2686 58.7196C93.7104 60.7604 94.0206 65.7439 91.7265 69.3524Z" fill="white"/>
<path id="Vector 19" d="M86.0263 74.7268C84.5154 72.68 82.9472 67.7364 88.7617 64.3369C88.9698 66.4145 88.714 71.4012 86.0263 74.7268Z" fill="white"/>
<path id="Vector 20" d="M79.7242 78.6017C78.551 76.3442 77.773 71.2165 84.0465 68.7655C83.928 70.8502 82.8977 75.7359 79.7242 78.6017Z" fill="white"/>
<path id="Vector 21" d="M71.3269 82.2119C70.8952 79.7047 71.7121 74.5831 78.4337 74.1543C77.6874 76.1043 75.2211 80.446 71.3269 82.2119Z" fill="white"/>
</g>
<g id="Group 980">
<path id="Vector 7_2" d="M19.8591 8.42285C-10.0042 49.2232 22.3062 77.5028 46.4842 84.195C48.6907 84.9145 57.6372 86.5696 66.488 84.195" stroke="white" stroke-width="0.43175"/>
<path id="Vector 9_2" d="M18.4933 10.2217C17.0986 8.0939 15.808 3.07068 21.8026 7.51126e-05C21.8948 2.08607 21.3619 7.05079 18.4933 10.2217Z" fill="white"/>
<path id="Vector 23_2" d="M13.4594 18.5305C11.835 16.5724 9.98939 11.7256 15.602 8.00229C15.9274 10.0648 15.9545 15.058 13.4594 18.5305Z" fill="white"/>
<path id="Vector 24_2" d="M10.4657 24.9605C8.36393 23.527 5.25194 19.378 9.61853 14.25C10.5007 16.1425 11.9052 20.9341 10.4657 24.9605Z" fill="white"/>
<path id="Vector 25_2" d="M8.41159 32.8534C6.09131 31.81 2.30116 28.2697 5.70277 22.4565C6.90257 24.1654 9.12405 28.6373 8.41159 32.8534Z" fill="white"/>
<path id="Vector 26_2" d="M7.64146 41.0169C5.19933 40.3038 0.956686 37.3208 3.52309 31.0936C4.94734 32.6205 7.76498 36.7428 7.64146 41.0169Z" fill="white"/>
<path id="Vector 27_2" d="M8.655 49.2033C6.15546 48.7292 1.64476 46.1695 3.59829 39.7237C5.16324 41.106 8.36551 44.9372 8.655 49.2033Z" fill="white"/>
<path id="Vector 28_2" d="M11.586 56.585C9.05045 56.7936 4.02098 55.5276 4.18746 48.7943C6.06401 49.71 10.1709 52.55 11.586 56.585Z" fill="white"/>
<path id="Vector 29_2" d="M15.0634 63.1591C12.6202 63.8687 7.43935 63.6301 6.26096 56.9986C8.28232 57.5221 12.8727 59.4869 15.0634 63.1591Z" fill="white"/>
<path id="Vector 30_2" d="M21.2545 69.7276C19.0546 71.0054 13.969 72.0231 11.2264 65.8715C13.3143 65.8921 18.243 66.6921 21.2545 69.7276Z" fill="white"/>
<path id="Vector 31_2" d="M26.9333 74.84C24.9741 76.4629 20.1259 78.3051 16.4067 72.6898C18.4694 72.3659 23.4626 72.3424 26.9333 74.84Z" fill="white"/>
<path id="Vector 32_2" d="M32.9725 78.6983C31.4839 80.7615 27.254 83.7625 22.2433 79.2617C24.1585 78.43 28.9856 77.1528 32.9725 78.6983Z" fill="white"/>
<path id="Vector 33_2" d="M41.3831 82.7167C39.8945 84.7798 35.6646 87.7808 30.6539 83.28C32.5691 82.4483 37.3963 81.1711 41.3831 82.7167Z" fill="white"/>
<path id="Vector 10_2" d="M18.3167 10.9212C20.2413 12.5851 25.0496 14.5289 28.8863 8.99318C26.8308 8.6259 21.8392 8.49731 18.3167 10.9212Z" fill="white"/>
<path id="Vector 11_2" d="M13.5885 18.4069C15.877 19.5183 21.0239 20.1567 23.3036 13.819C21.2229 13.994 16.3669 15.1567 13.5885 18.4069Z" fill="white"/>
<path id="Vector 12_2" d="M11.0046 25.3382C13.2956 26.4445 18.444 27.0713 20.7094 20.7285C18.6291 20.9082 13.7758 22.0818 11.0046 25.3382Z" fill="white"/>
<path id="Vector 13_2" d="M8.65285 32.9105C11.0945 33.6254 16.2758 33.3979 17.4685 26.769C15.446 27.2881 10.8514 29.2431 8.65285 32.9105Z" fill="white"/>
<path id="Vector 14_2" d="M8.26501 40.9608C10.8091 40.9735 15.7261 39.3237 15.0414 32.6233C13.2409 33.6808 9.36506 36.8288 8.26501 40.9608Z" fill="white"/>
<path id="Vector 22_2" d="M18.5645 10.3673C20.0756 8.20853 23.6397 1.07929 28.9264 1.30573C28.5035 5.60997 24.0627 9.00861 18.5645 10.3673Z" fill="white"/>
<path id="Vector 15_2" d="M9.07084 49.0563C11.6046 48.8267 16.3422 46.7163 15.0227 40.1115C13.3311 41.3356 9.77254 44.8383 9.07084 49.0563Z" fill="white"/>
<path id="Vector 16_2" d="M11.7013 56.3493C14.0976 55.4947 18.1587 52.2688 15.2327 46.2022C13.9001 47.8097 11.3282 52.0897 11.7013 56.3493Z" fill="white"/>
<path id="Vector 17_2" d="M15.6168 62.8798C17.8063 61.5843 21.1784 57.6438 17.1502 52.2458C16.1483 54.0778 14.4389 58.7693 15.6168 62.8798Z" fill="white"/>
<path id="Vector 18_2" d="M21.2476 69.3524C22.9804 67.4896 25.098 62.7552 19.7056 58.7196C19.2637 60.7604 18.9535 65.7439 21.2476 69.3524Z" fill="white"/>
<path id="Vector 19_2" d="M26.9478 74.7268C28.4587 72.68 30.0269 67.7364 24.2124 64.3369C24.0043 66.4145 24.2601 71.4012 26.9478 74.7268Z" fill="white"/>
<path id="Vector 20_2" d="M33.2499 78.6017C34.4231 76.3442 35.2011 71.2165 28.9276 68.7655C29.0461 70.8502 30.0765 75.7359 33.2499 78.6017Z" fill="white"/>
<path id="Vector 21_2" d="M41.6472 82.2168C42.079 79.7096 41.262 74.588 34.5404 74.1591C35.2867 76.1092 37.753 80.4509 41.6472 82.2168Z" fill="white"/>
</g>
<g id="Group 981">
<rect id="Rectangle 14354" x="42.7449" y="22.4568" width="28.0637" height="8.20325" fill="#020100"/>
<rect id="Rectangle 14355" x="52.6755" y="56.9941" width="28.0637" height="8.20325" transform="rotate(-90 52.6755 56.9941)" fill="#020100"/>
</g>
<path id="Rectangle 14356" d="M55.4446 86.1301C55.1074 85.7929 55.1074 85.2462 55.4446 84.9089L57.2955 83.058C57.6252 82.7284 58.1569 82.7199 58.4969 83.0388L60.2593 84.692C60.603 85.0144 60.6247 85.5528 60.3082 85.9018L58.496 87.9007C58.1645 88.2663 57.5946 88.2802 57.2457 87.9313L55.4446 86.1301Z" fill="white"/>
<g id="Group 989">
<g id="Group 983">
<path id="Polygon 1" d="M32.5046 36.2422C32.6624 35.7329 33.3845 35.7365 33.5372 36.2474L35.362 42.3522C35.524 42.8941 34.8493 43.2885 34.4566 42.8815L33.4108 41.7977C33.2013 41.5805 32.8543 41.5774 32.6409 41.7909L31.4959 42.9358C31.0976 43.3341 30.4321 42.9326 30.5987 42.3945L32.5046 36.2422Z" fill="#020100"/>
<path id="Polygon 2" d="M32.7071 41.3275C32.8984 41.47 33.1605 41.47 33.3518 41.3275L36.3975 39.0592C36.8142 38.7488 36.5947 38.0866 36.0751 38.0866H29.9838C29.4642 38.0866 29.2447 38.7488 29.6614 39.0592L32.7071 41.3275Z" fill="#020100"/>
</g>
<g id="Group 984">
<path id="Polygon 1_2" d="M32.5447 26.4364C32.6339 26.1486 33.042 26.1506 33.1283 26.4393L34.1597 29.8899C34.2513 30.1962 33.8699 30.4191 33.648 30.189L33.0569 29.5765C32.9384 29.4537 32.7423 29.452 32.6217 29.5726L31.9745 30.2198C31.7494 30.4449 31.3732 30.2179 31.4674 29.9138L32.5447 26.4364Z" fill="#020100"/>
<path id="Polygon 2_2" d="M32.659 29.3077C32.7671 29.3882 32.9153 29.3882 33.0234 29.3077L34.7449 28.0255C34.9804 27.8501 34.8563 27.4758 34.5627 27.4758H31.1197C30.826 27.4758 30.702 27.8501 30.9375 28.0255L32.659 29.3077Z" fill="#020100"/>
</g>
<g id="Group 985">
<path id="Polygon 1_3" d="M32.5447 48.8878C32.6339 48.6 33.042 48.602 33.1283 48.8907L34.1597 52.3413C34.2513 52.6476 33.8699 52.8705 33.648 52.6405L33.0569 52.0279C32.9384 51.9051 32.7423 51.9034 32.6217 52.024L31.9745 52.6712C31.7494 52.8963 31.3732 52.6693 31.4674 52.3652L32.5447 48.8878Z" fill="#020100"/>
<path id="Polygon 2_3" d="M32.659 51.764C32.7671 51.8445 32.9153 51.8445 33.0234 51.764L34.7449 50.4818C34.9804 50.3064 34.8563 49.9321 34.5627 49.9321H31.1197C30.826 49.9321 30.702 50.3064 30.9375 50.4818L32.659 51.764Z" fill="#020100"/>
</g>
</g>
<g id="Group 990">
<g id="Group 988">
<path id="Polygon 1_4" d="M80.8611 36.2422C81.0188 35.7329 81.741 35.7365 81.8936 36.2474L83.7185 42.3522C83.8804 42.8941 83.2057 43.2885 82.813 42.8815L81.7673 41.7977C81.5577 41.5805 81.2107 41.5774 80.9973 41.7909L79.8523 42.9358C79.454 43.3341 78.7885 42.9326 78.9552 42.3945L80.8611 36.2422Z" fill="#020100"/>
<path id="Polygon 2_4" d="M81.0635 41.3275C81.2548 41.47 81.517 41.47 81.7083 41.3275L84.7539 39.0592C85.1706 38.7488 84.9511 38.0866 84.4316 38.0866H78.3402C77.8206 38.0866 77.6011 38.7488 78.0178 39.0592L81.0635 41.3275Z" fill="#020100"/>
</g>
<g id="Group 986">
<path id="Polygon 1_5" d="M80.9026 48.8878C80.9918 48.6 81.3999 48.602 81.4862 48.8907L82.5176 52.3413C82.6092 52.6476 82.2278 52.8705 82.0059 52.6405L81.4148 52.0279C81.2963 51.9051 81.1002 51.9034 80.9796 52.024L80.3324 52.6712C80.1073 52.8963 79.7311 52.6693 79.8254 52.3652L80.9026 48.8878Z" fill="#020100"/>
<path id="Polygon 2_5" d="M81.0169 51.764C81.125 51.8445 81.2732 51.8445 81.3813 51.764L83.1028 50.4818C83.3383 50.3064 83.2142 49.9321 82.9206 49.9321H79.4776C79.1839 49.9321 79.0599 50.3064 79.2954 50.4818L81.0169 51.764Z" fill="#020100"/>
</g>
<g id="Group 987">
<path id="Polygon 1_6" d="M80.9026 26.4364C80.9918 26.1486 81.3999 26.1506 81.4862 26.4393L82.5176 29.8899C82.6092 30.1962 82.2278 30.4191 82.0059 30.189L81.4148 29.5765C81.2963 29.4537 81.1002 29.452 80.9796 29.5726L80.3324 30.2198C80.1073 30.4449 79.7311 30.2179 79.8254 29.9138L80.9026 26.4364Z" fill="#020100"/>
<path id="Polygon 2_6" d="M81.0169 29.3077C81.125 29.3882 81.2732 29.3882 81.3813 29.3077L83.1028 28.0255C83.3383 27.8501 83.2142 27.4758 82.9206 27.4758H79.4776C79.1839 27.4758 79.0599 27.8501 79.2954 28.0255L81.0169 29.3077Z" fill="#020100"/>
</g>
</g>
</g>
</svg>
